<svg width="123" height="28" viewBox="0 0 123 28" fill="none" xmlns="http://www.w3.org/2000/svg">
<g clip-path="url(#clip0_29_300)">
<path d="M1.48813 21.3334V6.40002H11.3227V8.72536H4.39969V12.7147H9.94244V14.976H4.39969V21.3334H1.48813ZM15.4791 21.5894C14.5733 21.5894 13.8256 21.4471 13.2361 21.1627C12.6467 20.864 12.2081 20.4729 11.9206 19.9894C11.6474 19.4916 11.5108 18.944 11.5108 18.3467C11.5108 17.6925 11.6761 17.1165 12.0068 16.6187C12.3519 16.1209 12.8623 15.7298 13.5381 15.4454C14.2282 15.1609 15.0909 15.0187 16.1261 15.0187H18.822C18.822 14.4925 18.7502 14.0587 18.6064 13.7174C18.4626 13.3618 18.2397 13.0987 17.9378 12.928C17.6358 12.7574 17.2332 12.672 16.73 12.672C16.1837 12.672 15.7164 12.7929 15.3282 13.0347C14.9543 13.2623 14.7243 13.6178 14.638 14.1014H11.8127C11.8846 13.3334 12.1362 12.672 12.5676 12.1174C13.0133 11.5485 13.5956 11.1076 14.3145 10.7947C15.0478 10.4818 15.8602 10.3254 16.7516 10.3254C17.7724 10.3254 18.6567 10.496 19.4043 10.8374C20.152 11.1787 20.7271 11.6694 21.1297 12.3094C21.5323 12.9494 21.7336 13.7387 21.7336 14.6774V21.3334H19.2749L18.9514 19.6907C18.7933 19.9751 18.6064 20.2311 18.3907 20.4587C18.175 20.6863 17.9234 20.8854 17.6358 21.056C17.3483 21.2267 17.0248 21.3547 16.6653 21.44C16.3059 21.5396 15.9105 21.5894 15.4791 21.5894ZM16.1693 19.3707C16.5431 19.3707 16.8738 19.3067 17.1614 19.1787C17.4633 19.0365 17.7221 18.8516 17.9378 18.624C18.1534 18.3823 18.3188 18.112 18.4338 17.8134C18.5632 17.5005 18.6495 17.1663 18.6926 16.8107V16.7894H16.4712C16.0255 16.7894 15.6588 16.8463 15.3713 16.96C15.0981 17.0596 14.8968 17.2089 14.7674 17.408C14.638 17.6071 14.5733 17.8347 14.5733 18.0907C14.5733 18.3751 14.638 18.6098 14.7674 18.7947C14.8968 18.9796 15.0837 19.1218 15.3282 19.2214C15.5726 19.3209 15.8529 19.3707 16.1693 19.3707ZM23.8027 21.3334V10.5814H26.3907L26.6711 12.5654C26.9299 12.096 27.2534 11.6978 27.6416 11.3707C28.0442 11.0436 28.4971 10.7876 29.0004 10.6027C29.518 10.4178 30.0859 10.3254 30.7042 10.3254V13.376H29.7121C29.2807 13.376 28.8781 13.4258 28.5043 13.5254C28.1449 13.6249 27.8286 13.7885 27.5554 14.016C27.2822 14.2294 27.0737 14.528 26.9299 14.912C26.7861 15.296 26.7143 15.7796 26.7143 16.3627V21.3334H23.8027ZM31.9805 21.3334V10.5814H34.5468L34.7841 12.0107C35.1291 11.4987 35.582 11.0934 36.1428 10.7947C36.718 10.4818 37.3721 10.3254 38.1054 10.3254C38.652 10.3254 39.1406 10.3965 39.572 10.5387C40.0033 10.6809 40.3844 10.8871 40.715 11.1574C41.0601 11.4276 41.3408 11.7689 41.5565 12.1814C41.9588 11.5983 42.4835 11.1431 43.1305 10.816C43.7775 10.4889 44.4822 10.3254 45.2444 10.3254C46.1934 10.3254 46.984 10.5174 47.6165 10.9014C48.2494 11.2711 48.7238 11.8116 49.0403 12.5227C49.3708 13.2338 49.5363 14.1085 49.5363 15.1467V21.3334H46.6463V15.4027C46.6463 14.5494 46.4738 13.8951 46.1287 13.44C45.7978 12.9849 45.2802 12.7574 44.5759 12.7574C44.1155 12.7574 43.7058 12.8711 43.3465 13.0987C42.987 13.3263 42.7066 13.6534 42.5051 14.08C42.3184 14.5067 42.2247 15.0187 42.2247 15.616V21.3334H39.3132V15.4027C39.3132 14.5494 39.1406 13.8951 38.7955 13.44C38.4505 12.9849 37.9187 12.7574 37.1996 12.7574C36.7541 12.7574 36.3514 12.8711 35.9918 13.0987C35.6467 13.3263 35.3738 13.6534 35.1723 14.08C34.9856 14.5067 34.8919 15.0187 34.8919 15.616V21.3334H31.9805Z" fill="white"/>
<path d="M81.8766 21.5894C80.9707 21.5894 80.223 21.4472 79.6336 21.1627C79.0439 20.8641 78.6054 20.473 78.318 19.9894C78.0447 19.4916 77.9082 18.9441 77.9082 18.3467C77.9082 17.6925 78.0733 17.1165 78.4042 16.6187C78.7493 16.121 79.2595 15.7298 79.9355 15.4454C80.6257 15.161 81.4883 15.0187 82.5236 15.0187H85.2195C85.2195 14.4925 85.1473 14.0587 85.0038 13.7174C84.8599 13.3618 84.6371 13.0987 84.3352 12.9281C84.0333 12.7574 83.6306 12.6721 83.1274 12.6721C82.5809 12.6721 82.1138 12.793 81.7256 13.0347C81.3515 13.2623 81.1217 13.6178 81.0354 14.1014H78.2101C78.2819 13.3334 78.5337 12.6721 78.965 12.1174C79.4105 11.5485 79.9928 11.1076 80.7119 10.7947C81.4452 10.4818 82.2573 10.3254 83.149 10.3254C84.1697 10.3254 85.054 10.4961 85.8018 10.8374C86.5492 11.1787 87.1244 11.6694 87.5271 12.3094C87.9295 12.9494 88.131 13.7387 88.131 14.6774V21.3334H85.6724L85.3489 19.6907C85.1905 19.9752 85.0038 20.2312 84.7881 20.4587C84.5724 20.6863 84.3207 20.8854 84.0333 21.0561C83.7455 21.2267 83.422 21.3547 83.0627 21.4401C82.7032 21.5396 82.3079 21.5894 81.8766 21.5894ZM82.5667 19.3707C82.9404 19.3707 83.271 19.3067 83.5588 19.1787C83.8607 19.0365 84.1195 18.8516 84.3352 18.6241C84.5509 18.3823 84.716 18.1121 84.8313 17.8134C84.9607 17.5005 85.0469 17.1663 85.0901 16.8107V16.7894H82.8686C82.4228 16.7894 82.0562 16.8463 81.7687 16.9601C81.4954 17.0596 81.2942 17.209 81.1648 17.4081C81.0354 17.6072 80.9707 17.8347 80.9707 18.0907C80.9707 18.3752 81.0354 18.6098 81.1648 18.7947C81.2942 18.9796 81.4809 19.1218 81.7256 19.2214C81.9699 19.321 82.2503 19.3707 82.5667 19.3707ZM94.9695 21.3334C94.2072 21.3334 93.5386 21.2196 92.9637 20.9921C92.403 20.7503 91.9642 20.3592 91.6481 19.8187C91.3317 19.2641 91.1737 18.5103 91.1737 17.5574V12.9921H89.3189V10.5814H91.1737L91.4972 7.65872H94.0852V10.5814H96.9537V12.9921H94.0852V17.6001C94.0852 18.0836 94.1931 18.4178 94.4087 18.6027C94.6244 18.7876 94.9911 18.8801 95.5087 18.8801H96.9321V21.3334H94.9695ZM103.745 21.5894C102.653 21.5894 101.682 21.3476 100.834 20.8641C99.9855 20.3805 99.324 19.7192 98.8495 18.8801C98.3751 18.041 98.1378 17.081 98.1378 16.0001C98.1378 14.8907 98.3751 13.9165 98.8495 13.0774C99.324 12.2241 99.9855 11.5556 100.834 11.0721C101.682 10.5743 102.653 10.3254 103.745 10.3254C105.14 10.3254 106.312 10.6881 107.261 11.4134C108.21 12.1387 108.814 13.1343 109.072 14.4001H105.988C105.859 13.9023 105.586 13.5112 105.169 13.2267C104.766 12.9423 104.284 12.8001 103.724 12.8001C103.221 12.8001 102.768 12.9281 102.365 13.1841C101.977 13.4258 101.668 13.7885 101.438 14.2721C101.222 14.7414 101.114 15.3032 101.114 15.9574C101.114 16.4552 101.179 16.9032 101.308 17.3014C101.438 17.6854 101.618 18.0196 101.847 18.3041C102.078 18.5743 102.351 18.7805 102.667 18.9227C102.998 19.065 103.35 19.1361 103.724 19.1361C104.098 19.1361 104.435 19.0721 104.737 18.9441C105.054 18.8161 105.32 18.6383 105.535 18.4107C105.751 18.169 105.902 17.8774 105.988 17.5361H109.072C108.814 18.7734 108.203 19.7618 107.239 20.5014C106.29 21.2267 105.126 21.5894 103.745 21.5894ZM110.937 21.3334V5.97339H113.848V12.1814C114.207 11.6125 114.682 11.1645 115.272 10.8374C115.875 10.4961 116.573 10.3254 117.364 10.3254C118.269 10.3254 119.031 10.5174 119.65 10.9014C120.268 11.2712 120.735 11.8116 121.052 12.5227C121.368 13.2338 121.526 14.1156 121.526 15.1681V21.3334H118.636V15.4241C118.636 14.5707 118.456 13.9165 118.097 13.4614C117.737 12.9921 117.169 12.7574 116.393 12.7574C115.919 12.7574 115.487 12.8712 115.099 13.0987C114.711 13.3263 114.401 13.6605 114.172 14.1014C113.956 14.5281 113.848 15.0401 113.848 15.6374V21.3334H110.937Z" fill="white"/>
<path d="M69.8644 8.75527C69.9678 7.8637 69.9294 6.9486 69.7525 6.07377C69.5756 5.19897 69.2642 4.3855 68.8399 3.69017C68.4157 2.99485 67.8889 2.43441 67.2962 2.04795C66.7038 1.66149 66.0594 1.45833 65.4087 1.45264C64.758 1.44695 64.1164 1.63886 63.5287 2.015C62.9406 2.39113 62.421 2.94243 62.0055 3.6304C61.59 4.3184 61.2887 5.12647 61.1229 5.9983C60.9571 6.87013 60.9305 7.78467 61.0451 8.67813" stroke="white" stroke-width="3"/>
<path d="M61.381 8.06067L55.2657 8.1458C55.2657 8.1458 56.9072 17.7049 59.3675 20.059C61.8279 22.4131 65.5701 19.9727 65.5701 19.9727L61.381 8.06067Z" stroke="white" stroke-width="3"/>
<path d="M69.6834 7.91009L75.7983 7.82495C75.7983 7.82495 74.2903 17.4279 71.863 19.8501C69.436 22.2722 65.6608 19.9364 65.6608 19.9364L69.6834 7.91009Z" stroke="white" stroke-width="3"/>
</g>
<defs>
<clipPath id="clip0_29_300">
<rect width="123" height="28" fill="white"/>
</clipPath>
</defs>
</svg>
