<svg width="52" height="25" viewBox="0 0 52 25" fill="none" xmlns="http://www.w3.org/2000/svg">
<path d="M29.054 17V16.1051L32.4148 12.4261C32.8092 11.9953 33.134 11.6207 33.3892 11.3026C33.6444 10.9811 33.8333 10.6795 33.956 10.3977C34.0819 10.1127 34.1449 9.81439 34.1449 9.50284C34.1449 9.14489 34.0587 8.83499 33.8864 8.57315C33.7173 8.31132 33.4853 8.10914 33.1903 7.96662C32.8954 7.8241 32.5639 7.75284 32.196 7.75284C31.8049 7.75284 31.4635 7.83404 31.1719 7.99645C30.8835 8.15554 30.6598 8.37926 30.5007 8.66761C30.3449 8.95597 30.267 9.29403 30.267 9.68182H29.0938C29.0938 9.08523 29.2313 8.56155 29.5064 8.1108C29.7815 7.66004 30.156 7.30871 30.63 7.05682C31.1072 6.80492 31.6425 6.67898 32.2358 6.67898C32.8324 6.67898 33.361 6.80492 33.8217 7.05682C34.2824 7.30871 34.6437 7.64844 34.9055 8.07599C35.1674 8.50355 35.2983 8.97917 35.2983 9.50284C35.2983 9.87737 35.2304 10.2436 35.0945 10.6016C34.9619 10.9562 34.7299 11.3523 34.3984 11.7898C34.0703 12.224 33.6146 12.7543 33.0312 13.3807L30.7443 15.8267V15.9062H35.4773V17H29.054ZM40.9709 17.1392C40.3146 17.1392 39.7296 17.0265 39.2159 16.8011C38.7055 16.5758 38.2995 16.2625 37.9979 15.8615C37.6996 15.4571 37.5372 14.9882 37.5107 14.4545H38.7635C38.79 14.7827 38.9027 15.0661 39.1016 15.3047C39.3004 15.54 39.5606 15.7223 39.8821 15.8516C40.2036 15.9808 40.5599 16.0455 40.951 16.0455C41.3885 16.0455 41.7763 15.9692 42.1143 15.8168C42.4524 15.6643 42.7176 15.4522 42.9098 15.1804C43.102 14.9086 43.1982 14.5938 43.1982 14.2358C43.1982 13.8613 43.1054 13.5315 42.9197 13.2464C42.7341 12.9581 42.4624 12.7327 42.1044 12.5703C41.7464 12.4079 41.3089 12.3267 40.7919 12.3267H39.9766V11.233H40.7919C41.1963 11.233 41.5509 11.16 41.8558 11.0142C42.1641 10.8684 42.4044 10.6629 42.5767 10.3977C42.7524 10.1326 42.8402 9.82102 42.8402 9.46307C42.8402 9.11837 42.764 8.81842 42.6115 8.56321C42.459 8.308 42.2436 8.10914 41.9652 7.96662C41.6901 7.8241 41.3653 7.75284 40.9908 7.75284C40.6394 7.75284 40.308 7.81747 39.9964 7.94673C39.6882 8.07268 39.4363 8.25663 39.2408 8.49858C39.0452 8.73722 38.9392 9.02557 38.9226 9.36364H37.7294C37.7493 8.83002 37.91 8.36269 38.2116 7.96165C38.5133 7.55729 38.9077 7.24242 39.3949 7.01705C39.8854 6.79167 40.424 6.67898 41.0107 6.67898C41.6404 6.67898 42.1806 6.80658 42.6314 7.06179C43.0821 7.31368 43.4285 7.64678 43.6705 8.06108C43.9124 8.47538 44.0334 8.92282 44.0334 9.40341C44.0334 9.9768 43.8826 10.4657 43.581 10.87C43.2827 11.2744 42.8767 11.5545 42.3629 11.7102V11.7898C43.0059 11.8958 43.508 12.1693 43.8693 12.6101C44.2306 13.0476 44.4112 13.5895 44.4112 14.2358C44.4112 14.7893 44.2604 15.2865 43.9588 15.7273C43.6605 16.1648 43.2528 16.5095 42.7358 16.7614C42.2188 17.0133 41.6304 17.1392 40.9709 17.1392ZM48.5724 11.3125C48.1515 11.3125 47.767 11.2098 47.419 11.0043C47.0743 10.7988 46.7992 10.5237 46.5938 10.179C46.3883 9.83097 46.2855 9.4465 46.2855 9.02557C46.2855 8.60464 46.3883 8.22183 46.5938 7.87713C46.7992 7.52912 47.0743 7.25237 47.419 7.04688C47.767 6.84138 48.1515 6.73864 48.5724 6.73864C48.9934 6.73864 49.3762 6.84138 49.7209 7.04688C50.0689 7.25237 50.3456 7.52912 50.5511 7.87713C50.7566 8.22183 50.8594 8.60464 50.8594 9.02557C50.8594 9.4465 50.7566 9.83097 50.5511 10.179C50.3456 10.5237 50.0689 10.7988 49.7209 11.0043C49.3762 11.2098 48.9934 11.3125 48.5724 11.3125ZM48.5724 10.3182C48.8111 10.3182 49.0282 10.2602 49.2237 10.1442C49.4193 10.0282 49.575 9.8724 49.6911 9.67685C49.8071 9.4813 49.8651 9.2642 49.8651 9.02557C49.8651 8.78693 49.8071 8.56984 49.6911 8.37429C49.575 8.17874 49.4193 8.02296 49.2237 7.90696C49.0282 7.79096 48.8111 7.73295 48.5724 7.73295C48.3338 7.73295 48.1167 7.79096 47.9212 7.90696C47.7256 8.02296 47.5698 8.17874 47.4538 8.37429C47.3378 8.56984 47.2798 8.78693 47.2798 9.02557C47.2798 9.2642 47.3378 9.4813 47.4538 9.67685C47.5698 9.8724 47.7256 10.0282 47.9212 10.1442C48.1167 10.2602 48.3338 10.3182 48.5724 10.3182Z" fill="black"/>
<circle cx="12.5" cy="12.5" r="5" stroke="black"/>
<path fill-rule="evenodd" clip-rule="evenodd" d="M12.931 -5.05824e-05L12.931 5.17236L12.069 5.17236L12.069 -5.05447e-05L12.931 -5.05824e-05Z" fill="black"/>
<path fill-rule="evenodd" clip-rule="evenodd" d="M12.931 19.8276L12.931 25L12.069 25L12.069 19.8276L12.931 19.8276Z" fill="black"/>
<path fill-rule="evenodd" clip-rule="evenodd" d="M25 12.9309L19.8276 12.9309L19.8276 12.0688L25 12.0688L25 12.9309Z" fill="black"/>
<path fill-rule="evenodd" clip-rule="evenodd" d="M5.17241 12.9309L0 12.9309L0 12.0688L5.17241 12.0688L5.17241 12.9309Z" fill="black"/>
<path fill-rule="evenodd" clip-rule="evenodd" d="M21.126 22.1613L17.4686 18.5039L18.0781 17.8943L21.7356 21.5517L21.126 22.1613Z" fill="black"/>
<path fill-rule="evenodd" clip-rule="evenodd" d="M7.1058 8.14105L3.44835 4.4836L4.05792 3.87402L7.71537 7.53147L7.1058 8.14105Z" fill="black"/>
<path fill-rule="evenodd" clip-rule="evenodd" d="M22.5977 4.05784L18.9402 7.71529L18.3306 7.10571L21.9881 3.44826L22.5977 4.05784Z" fill="black"/>
<path fill-rule="evenodd" clip-rule="evenodd" d="M8.57745 18.0781L4.92 21.7356L4.31042 21.126L7.96787 17.4685L8.57745 18.0781Z" fill="black"/>
</svg>
